<?xml version="1.0" encoding="UTF-8"?>
<svg version="1.1" xmlns="http://www.w3.org/2000/svg" width="500" height="500">
<path d="M0 0 C1.38445312 1.19689453 1.38445312 1.19689453 2.796875 2.41796875 C7.25110737 6.339043 11.36626002 10.33530485 15.18359375 14.87890625 C16.46920577 16.38016932 17.79993587 17.84333203 19.16015625 19.27734375 C31.27342065 32.06028456 41.47312328 46.61364026 50 62 C50.4017041 62.71591309 50.8034082 63.43182617 51.21728516 64.16943359 C57.85492491 76.07536522 63.269727 88.22354834 68 101 C68.40943848 102.07072754 68.40943848 102.07072754 68.82714844 103.16308594 C72.59092962 113.06801812 75.066797 123.1368046 77.25 133.5 C77.49637207 134.66200928 77.74274414 135.82401855 77.99658203 137.02124023 C81.18221426 152.84702963 82.38915703 168.50714206 82.3125 184.625 C82.31034485 185.45005035 82.3081897 186.27510071 82.30596924 187.12515259 C82.06929193 243.92975906 62.76581021 298.80885852 27 343 C26.18402344 344.0209375 25.36804688 345.041875 24.52734375 346.09375 C13.38053176 359.80076876 0.8021514 372.32740743 -13.41943359 382.82080078 C-14.91185654 383.93423959 -16.37315263 385.08905209 -17.83203125 386.24609375 C-26.97721069 393.42154223 -36.94065349 399.21161506 -47 405 C-47.67466309 405.39106934 -48.34932617 405.78213867 -49.04443359 406.18505859 C-59.5806854 412.23990228 -70.62792744 416.75841406 -82 421 C-82.72493652 421.27585937 -83.44987305 421.55171875 -84.19677734 421.8359375 C-110.52109192 431.74511345 -138.22606686 435.43122381 -166.1875 435.375 C-167.25002991 435.37412384 -168.31255981 435.37324768 -169.4072876 435.37234497 C-230.46823179 435.20641537 -291.76683808 413.44132423 -336.2421875 370.63671875 C-339.29074953 367.72201709 -342.46091831 364.99528008 -345.70703125 362.3046875 C-347 361 -347 361 -347 359 C-347.99 358.67 -348.98 358.34 -350 358 C-351.875 355.953125 -351.875 355.953125 -354 353.25 C-356.49816162 350.10506515 -358.98527947 346.98310207 -361.6484375 343.9765625 C-373.0858196 331.02340762 -381.97317688 316.2599363 -390 301 C-390.59312988 299.88093262 -390.59312988 299.88093262 -391.19824219 298.73925781 C-402.90117904 276.34497817 -410.66558833 251.86238692 -415 227 C-415.12310547 226.31470215 -415.24621094 225.6294043 -415.37304688 224.92333984 C-426.20181645 162.20938589 -409.62415384 94.48474496 -373.24121094 42.73632812 C-359.71710665 23.81747886 -344.34063694 6.36557434 -326 -8 C-324.95541935 -8.85610993 -323.91251786 -9.71427179 -322.87109375 -10.57421875 C-249.81741283 -70.32876996 -144.41534138 -80.45009618 0 0 Z " fill="#149DC2" transform="translate(418,65)"/>
<path d="M0 0 C0.71655762 0.21140625 1.43311523 0.4228125 2.17138672 0.640625 C23.42845568 7.0424037 42.78551343 16.91542008 60 31 C62.28282279 32.74701975 64.56990735 34.48826299 66.859375 36.2265625 C69.41014452 38.33979126 71.68765783 40.62818761 74 43 C74.88816406 43.90234375 75.77632813 44.8046875 76.69140625 45.734375 C97.53990987 67.42710896 112.78843648 94.78137602 120 124 C120.19754883 124.76892578 120.39509766 125.53785156 120.59863281 126.33007812 C130.7242388 167.13080144 123.06498106 214.50108378 101.78515625 250.515625 C76.10679581 292.4170325 37.02229396 321.1203191 -10.85107422 332.68896484 C-43.07687505 339.8374332 -77.28443338 337.01492196 -108 325 C-109.02996094 324.62359375 -110.05992187 324.2471875 -111.12109375 323.859375 C-129.48931948 316.78125274 -145.41363957 305.43289914 -160.4375 292.9375 C-160.99993408 292.472229 -161.56236816 292.00695801 -162.1418457 291.52758789 C-163.46862558 290.39788157 -164.74050894 289.20426886 -166 288 C-166 287.34 -166 286.68 -166 286 C-166.99 285.67 -167.98 285.34 -169 285 C-171.54703428 282.53214814 -173.73311452 279.72466429 -176 277 C-177.04220703 275.78763672 -177.04220703 275.78763672 -178.10546875 274.55078125 C-188.3627455 262.4054394 -196.35099695 249.40435959 -203 235 C-203.4333667 234.0730835 -203.4333667 234.0730835 -203.87548828 233.12744141 C-207.54340864 225.21868633 -210.14882871 217.5041687 -212 209 C-212.24363281 208.04351562 -212.48726563 207.08703125 -212.73828125 206.1015625 C-223.98519593 161.22925675 -216.58701472 115.36205913 -193.15771484 75.61694336 C-186.07265416 63.96663923 -177.38573606 53.84323871 -168 44 C-167.26136719 43.20851562 -166.52273437 42.41703125 -165.76171875 41.6015625 C-143.61000778 18.51842676 -112.88413204 3.89645667 -82 -3 C-81.06285156 -3.21527344 -80.12570313 -3.43054688 -79.16015625 -3.65234375 C-53.65387272 -9.17266104 -24.96641122 -7.39219008 0 0 Z " fill="#F6FAFB" transform="translate(297,86)"/>
<path d="M0 0 C54.12 0 108.24 0 164 0 C164 19.88952637 164 19.88952637 162.8125 29.0625 C162.61720703 30.62689819 162.61720703 30.62689819 162.41796875 32.22290039 C160.46022038 47.04728248 157.50745756 61.73606537 153 76 C152.31929443 75.94247559 151.63858887 75.88495117 150.93725586 75.82568359 C149.76175171 75.72634521 149.76175171 75.72634521 148.5625 75.625 C145.28562271 75.34808079 142.18668713 74.8280369 138.99609375 74.0625 C101.09470309 65.44302181 55.46071865 67.34048443 17.703125 75.44921875 C15 76 15 76 12 76 C7.09131241 62.05198951 4.1245729 47.58920987 2.25 32.9375 C2.13462891 32.05505615 2.01925781 31.1726123 1.90039062 30.26342773 C0.71190193 20.17297861 0.48614564 10.20905847 0 0 Z " fill="#02BAD4" transform="translate(168,256)"/>
<path d="M0 0 C6.7422805 -0.30247568 13.17281609 0.84908897 19.8125 1.9375 C22.06858932 2.30338727 24.32509678 2.66670634 26.58203125 3.02734375 C27.57436768 3.18968506 28.5667041 3.35202637 29.58911133 3.51928711 C38.12089321 4.72171203 46.51486423 5.16900758 55.12890625 5.203125 C56.84991798 5.21167511 56.84991798 5.21167511 58.60569763 5.22039795 C61.03033542 5.22980305 63.45498573 5.23636396 65.87963867 5.24023438 C69.5000806 5.24983449 73.11992781 5.28085785 76.74023438 5.3125 C92.37616958 5.38265072 107.53239922 4.26075454 123 2 C124.54500143 1.7796096 126.09000451 1.5592308 127.63500977 1.33886719 C129.86760689 1.01378585 132.0989776 0.67998192 134.328125 0.33203125 C136.917251 0.01028314 139.39417151 -0.0618171 142 0 C146.17333293 13.60772919 150.03420854 27.70342272 150.82421875 41.96875 C150.93798355 44.20271461 150.93798355 44.20271461 152 47 C152 56.24 152 65.48 152 75 C98.54 75 45.08 75 -10 75 C-10 52.73696164 -10 52.73696164 -8.875 44.0625 C-8.74883301 43.04397949 -8.62266602 42.02545898 -8.49267578 40.97607422 C-6.67824533 27.3523995 -4.35480961 13.06442883 0 0 Z " fill="#0AB0D3" transform="translate(179,170)"/>
<path d="M0 0 C2.73394131 1.94282774 5.36346961 3.94612782 7.96484375 6.0625 C8.93035156 6.81273438 9.89585937 7.56296875 10.890625 8.3359375 C25.53280331 20.6450086 35.81504769 41.22809142 41.96484375 59.0625 C41.96484375 59.7225 41.96484375 60.3825 41.96484375 61.0625 C6.99181134 69.64835084 -56.94129137 78.10943244 -91.03515625 61.0625 C-87.69390313 39.02714716 -69.71062891 14.27032561 -52.16015625 1.3125 C-36.13951106 -9.51626944 -16.42125806 -10.48255341 0 0 Z " fill="#1D97C7" transform="translate(275.03515625,97.9375)"/>
<path d="M0 0 C0.85062012 0.14405273 1.70124023 0.28810547 2.57763672 0.43652344 C7.07088835 1.20679515 11.54059223 2.05018656 16 3 C14.06155199 9.21184475 11.84081079 15.14445122 9 21 C8.70883301 21.60376465 8.41766602 22.2075293 8.11767578 22.82958984 C-1.61965223 42.78029301 -15.33674051 62.10441641 -37 70 C-49.19356741 74.06452247 -60.4717141 72.37894963 -72 67 C-93.80209587 55.19857053 -107.21331394 31.22567694 -116 9 C-116.80859375 5.31640625 -116.80859375 5.31640625 -117 3 C-80.24438221 -6.42280383 -37.2583561 -6.53758005 0 0 Z " fill="#01B5CA" transform="translate(301,339)"/>
<path d="M0 0 C22.11 0 44.22 0 67 0 C67 34.38713326 54.44545418 65.70479975 34 93 C32.49890232 92.5662812 30.99918823 92.12777365 29.5 91.6875 C28.6646875 91.44386719 27.829375 91.20023437 26.96875 90.94921875 C24.6635075 90.21214779 22.43276329 89.41631349 20.17578125 88.55078125 C16.06734802 86.99085596 11.90917466 85.71445435 7.6875 84.5 C6.95345947 84.28641846 6.21941895 84.07283691 5.46313477 83.8527832 C-0.34048834 82.17126462 -6.16017833 80.55139971 -12 79 C-10.91688387 74.03571774 -9.78141915 69.09036996 -8.58056641 64.15307617 C-4.24508958 46.13489985 -2.27780842 28.6935657 -1.24951172 10.18701172 C-0.9824888 6.77632954 -0.48381927 3.38673487 0 0 Z " fill="#02B5CA" transform="translate(343,256)"/>
<path d="M0 0 C22.11 0 44.22 0 67 0 C67.33 7.26 67.66 14.52 68 22 C68.47904092 26.65038187 68.99154106 31.2019485 69.6875 35.8125 C69.85540039 36.96685547 70.02330078 38.12121094 70.19628906 39.31054688 C71.92962365 50.60954853 74.57244209 61.6557312 77.51269531 72.6953125 C78 75 78 75 78 79 C76.82566406 79.29132813 75.65132813 79.58265625 74.44140625 79.8828125 C64.64986122 82.35910601 55.11860138 85.1877975 45.63671875 88.66796875 C44.43660156 89.10753906 43.23648438 89.54710937 42 90 C40.95457031 90.40863281 39.90914062 90.81726563 38.83203125 91.23828125 C35.61204413 92.10434675 34.09219495 92.25304632 31 91 C15.64744403 74.19063215 6.52665032 48.95865353 2 27.125 C1.79213867 26.14015625 1.58427734 25.1553125 1.37011719 24.140625 C-0.21490416 15.76860331 0 8.87041665 0 0 Z " fill="#07B5D6" transform="translate(91,256)"/>
<path d="M0 0 C5.94743854 0.67083903 11.28786949 2.78298091 16.875 4.8125 C26.1578424 8.12331395 35.37529124 10.87669705 45 13 C46.46473305 17.66378191 45.26936231 21.09289316 43.8125 25.5625 C41.46464134 33.41605027 39.98168726 41.26593674 38.8125 49.375 C38.581073 50.91909546 38.581073 50.91909546 38.3449707 52.49438477 C36.54016931 65.632752 35.94865293 78.71885903 35 92 C12.89 92 -9.22 92 -32 92 C-32 58.10876142 -20.44085844 26.92731039 0 0 Z " fill="#1C97C7" transform="translate(123,153)"/>
<path d="M0 0 C17.55942902 18.68744373 26.66561546 47.16385449 30.75 71.8125 C30.94203003 72.95924194 30.94203003 72.95924194 31.13793945 74.12915039 C32.02466364 79.92753922 32 84.98551792 32 91 C9.89 91 -12.22 91 -35 91 C-35.66 82.09 -36.32 73.18 -37 64 C-37.70288497 58.735535 -38.4310669 53.5858357 -39.375 48.375 C-39.59124023 47.1286377 -39.80748047 45.88227539 -40.03027344 44.59814453 C-41.67602192 35.30727808 -43.61823981 26.13008071 -46 17 C-46.33452155 15.66696428 -46.66810675 14.33369253 -47 13 C-46.40799805 12.82460693 -45.81599609 12.64921387 -45.20605469 12.46850586 C-42.38586568 11.62978491 -39.56763161 10.78477389 -36.75 9.9375 C-35.71834717 9.62748047 -34.68669434 9.31746094 -33.6237793 8.99804688 C-25.75129618 6.60262384 -17.99255852 3.96389597 -10.29785156 1.04663086 C-9.52538086 0.76311768 -8.75291016 0.47960449 -7.95703125 0.1875 C-7.28647705 -0.06644531 -6.61592285 -0.32039062 -5.92504883 -0.58203125 C-3.58952898 -1.08912193 -2.22825653 -0.83027764 0 0 Z " fill="#02BBD6" transform="translate(378,154)"/>
<path d="M0 0 C-0.59425781 0.53625 -1.18851562 1.0725 -1.80078125 1.625 C-18.11117393 17.0475797 -29.18353375 38.14169504 -37 59 C-44.65712071 58.52247715 -51.62933943 56.50587148 -58.90429688 54.18920898 C-60.88890241 53.55807885 -62.87756319 52.94127542 -64.8671875 52.32617188 C-74.59137031 49.27241979 -74.59137031 49.27241979 -78 47 C-69.77063233 28.23200332 -39.79371452 12.70684381 -21.80859375 5.47265625 C-20.53986013 4.97971295 -19.27032207 4.48883526 -18 4 C-17.34531738 3.7407373 -16.69063477 3.48147461 -16.01611328 3.21435547 C-3.95936067 -1.5376158 -3.95936067 -1.5376158 0 0 Z " fill="#2B85BE" transform="translate(210,97)"/>
<path d="M0 0 C1.09051842 2.35920605 1.90787204 4.53847156 2.6875 7 C9.76624379 27.37555185 21.69352402 44.88545476 37 60 C9.72374996 56.62978789 -15.58641401 38.32751125 -35 20 C-35.71671875 19.32453125 -36.4334375 18.6490625 -37.171875 17.953125 C-40.77069498 14.46946726 -40.77069498 14.46946726 -42 13 C-42 12.34 -42 11.68 -42 11 C-32.89248575 7.32045986 -23.71694726 4.19507872 -14.25 1.5625 C-12.82179932 1.15620361 -12.82179932 1.15620361 -11.36474609 0.74169922 C-10.46578613 0.49822754 -9.56682617 0.25475586 -8.640625 0.00390625 C-7.84172852 -0.21450928 -7.04283203 -0.4329248 -6.21972656 -0.65795898 C-3.7581194 -1.03727175 -2.29769209 -0.95947925 0 0 Z " fill="#05B8D0" transform="translate(174,346)"/>
<path d="M0 0 C9.08435625 1.2689636 17.47413348 3.66437147 26 7 C28.98935733 8.03277322 31.99441504 9.01561268 35 10 C37 10.66666667 39 11.33333333 41 12 C39.53033642 15.39859703 37.61962486 17.64963709 35 20.25 C33.948125 21.30960937 33.948125 21.30960937 32.875 22.390625 C31 24 31 24 29 24 C29 24.66 29 25.32 29 26 C27.67749023 27.27758789 27.67749023 27.27758789 25.80859375 28.72265625 C25.11902588 29.25673096 24.42945801 29.79080566 23.71899414 30.34106445 C22.58965454 31.19317505 22.58965454 31.19317505 21.4375 32.0625 C20.66462646 32.64668701 19.89175293 33.23087402 19.09545898 33.83276367 C2.70609288 46.04382307 -16.06755416 55.98950881 -36 61 C-36.66 60.67 -37.32 60.34 -38 60 C-37.28714844 59.32195312 -36.57429688 58.64390625 -35.83984375 57.9453125 C-29.74785942 52.06442598 -24.53446019 46.19576865 -20 39 C-18.97326172 37.43958984 -18.97326172 37.43958984 -17.92578125 35.84765625 C-11.28068506 25.47989921 -6.58040201 14.34496055 -1.88867188 2.98681641 C-1 1 -1 1 0 0 Z " fill="#05B1C4" transform="translate(328,345)"/>
<path d="M0 0 C27.7342461 5.88771705 61.8078764 23.7118146 78 48 C45.93536899 60.20734683 45.93536899 60.20734683 36 60 C35.47212891 58.61941406 35.47212891 58.61941406 34.93359375 57.2109375 C27.67556813 38.48578031 18.64417642 21.83462855 5.3828125 6.7421875 C3.47828377 4.55041837 1.69886266 2.35140593 0 0 Z " fill="#12A6CE" transform="translate(291,96)"/>
<path d="M0 0 C2.86117912 2.32470803 5.03049073 4.99902732 7.1875 7.95703125 C6.57003906 8.50230469 5.95257813 9.04757813 5.31640625 9.609375 C-0.59534846 14.87326618 -6.26996967 20.30699494 -11.8125 25.95703125 C-12.4725 26.61703125 -13.1325 27.27703125 -13.8125 27.95703125 C-18.70015533 26.59934921 -20.33841098 24.28668704 -22.8125 19.95703125 C-24.36667619 15.29450267 -24.35698802 11.46949798 -22.6875 6.83203125 C-20.20836201 3.03068633 -17.34003149 -0.19359462 -12.89453125 -1.6875 C-8.53959187 -2.43102624 -3.8853615 -2.23575759 0 0 Z " fill="#4E8CC2" transform="translate(133.8125,112.04296875)"/>
<path d="M0 0 C2.76906996 2.68762673 5.35835614 5.39640896 7.8125 8.375 C10.64589121 11.74285519 13.81463946 14.51295073 17.1640625 17.35546875 C19.40632511 19.36396356 21.23168831 21.56857143 23 24 C22.236875 24.433125 21.47375 24.86625 20.6875 25.3125 C18.05841181 26.79894064 18.05841181 26.79894064 16.5625 28.5625 C13.80647833 31.09803994 10.73679946 31.99659451 7.0078125 32.00390625 C2.70783392 31.60636106 -0.61227591 30.82310341 -4 28 C-7.13365935 23.68063171 -8.68333453 20.36549809 -8.390625 14.9921875 C-7.67784276 11.35699807 -6.16868811 9.01206682 -4 6 C-1.75 4.5625 -1.75 4.5625 0 4 C0 2.68 0 1.36 0 0 Z " fill="#24C1D7" transform="translate(118,359)"/>
<path d="M0 0 C4.08102497 1.68924438 6.19817769 4.89179652 8 8.8125 C9.49593238 13.40466451 8.52682852 16.49585586 7 21 C6.67 21.99 6.34 22.98 6 24 C3.4375 25.1875 3.4375 25.1875 1 26 C1 27.32 1 28.64 1 30 C-2.80633881 28.4688137 -4.85384783 26.14816717 -7.5 23.0625 C-9.66769439 20.54218409 -11.60888198 18.28998991 -14.28125 16.30859375 C-14.8484375 15.87675781 -15.415625 15.44492188 -16 15 C-16 14.34 -16 13.68 -16 13 C-16.639375 12.71125 -17.27875 12.4225 -17.9375 12.125 C-20 11 -20 11 -21 9 C-19.87895467 7.68412059 -18.75303035 6.37239647 -17.625 5.0625 C-16.99851562 4.33160156 -16.37203125 3.60070312 -15.7265625 2.84765625 C-11.64305184 -1.52225448 -5.56296082 -0.6253786 0 0 Z " fill="#2FBAD9" transform="translate(382,111)"/>
<path d="M0 0 C1 3 1 3 1 6 C2.0772721 7.65503095 2.0772721 7.65503095 3.5 9.1875 C4.325 10.115625 5.15 11.04375 6 12 C2 12 2 12 -1 10 C-1 9.34 -1 8.68 -1 8 C-2.32 8 -3.64 8 -5 8 C-3.66671836 10.98482029 -3.66671836 10.98482029 -1.375 13.25 C0.93690107 16.19241954 0.1791891 19.35648824 0 23 C-0.639375 22.814375 -1.27875 22.62875 -1.9375 22.4375 C-2.9584375 22.2209375 -2.9584375 22.2209375 -4 22 C-4.495 22.495 -4.495 22.495 -5 23 C-6.99958364 23.04080783 -9.00045254 23.04254356 -11 23 C-10.67 24.65 -10.34 26.3 -10 28 C-12.49361571 26.79618552 -14.68143083 25.54571278 -17 24 C-19.15274948 24.30840599 -19.15274948 24.30840599 -21 25 C-20.50168276 28.68754757 -19.89932357 30.60490662 -17 33 C-17.33 33.99 -17.66 34.98 -18 36 C-19.32 35.67 -20.64 35.34 -22 35 C-22.0825 35.845625 -22.165 36.69125 -22.25 37.5625 C-23.15733853 41.72113491 -24.76541273 44.39582699 -27 48 C-30.10442031 46.6095501 -32.3656443 44.98428402 -34.8125 42.625 C-35.75029297 41.74714844 -35.75029297 41.74714844 -36.70703125 40.8515625 C-38 39 -38 39 -37.8359375 36.9453125 C-36.49114478 33.81584159 -34.64029623 32.11223698 -32 30 C-28.6875 29.6875 -28.6875 29.6875 -26 30 C-25.9071875 28.39125 -25.9071875 28.39125 -25.8125 26.75 C-25 23 -25 23 -22.75 20.5 C-20 19 -20 19 -17.1875 19.25 C-16.465625 19.4975 -15.74375 19.745 -15 20 C-15.103125 18.948125 -15.20625 17.89625 -15.3125 16.8125 C-14.91082934 11.91211796 -13.69195078 11.15354129 -10 8 C-8.59800065 6.56851309 -7.20248598 5.13065485 -5.8125 3.6875 C-2.24768946 0 -2.24768946 0 0 0 Z " fill="#4C81BC" transform="translate(184,56)"/>
<path d="M0 0 C8.55279503 6.65217391 8.55279503 6.65217391 9.28125 12.10546875 C9.48339572 17.13384364 8.87738506 20.7335325 6 25 C1.8494498 28.93770147 -0.80979704 29.83776274 -6.375 30.25 C-11.01545448 29.92996866 -14.19644332 28.86525731 -17.484375 25.46484375 C-18.70412219 24.0155374 -19.85806925 22.51137893 -21 21 C-20.52691406 20.59910156 -20.05382812 20.19820313 -19.56640625 19.78515625 C-12.54406626 13.74840784 -5.53776317 7.46394167 0 0 Z " fill="#26BAC8" transform="translate(381,360)"/>
<path d="M0 0 C0.66 0.33 1.32 0.66 2 1 C1.896875 1.721875 1.79375 2.44375 1.6875 3.1875 C2.12449065 7.12041589 4.10082197 8.46321923 7 11 C6.67 11.99 6.34 12.98 6 14 C3.80273438 12.046875 3.80273438 12.046875 1.60546875 10.09375 C-0.089448 8.71848759 -0.089448 8.71848759 -3 9 C-3.33 9.66 -3.66 10.32 -4 11 C-3.34 11 -2.68 11 -2 11 C0.7456925 13.7456925 1.92909089 15.27672704 2.3125 19.1875 C2 22 2 22 1 24 C-2.66666667 24 -6.33333333 24 -10 24 C-9.34 25.32 -8.68 26.64 -8 28 C-8.99 28.33 -9.98 28.66 -11 29 C-11.7425 28.175 -12.485 27.35 -13.25 26.5 C-15.87387385 23.55155147 -15.87387385 23.55155147 -20 24 C-19.54663921 28.87362847 -18.2910841 31.39042389 -15 35 C-16.66666667 35 -18.33333333 35 -20 35 C-19.87625 36.36125 -19.87625 36.36125 -19.75 37.75 C-20.05667185 41.73673402 -21.13063524 42.39148658 -24 45 C-24.7872678 47.1381966 -24.7872678 47.1381966 -25 49 C-28.81936528 47.44396229 -31.26044438 45.04395069 -34 42 C-34 41.34 -34 40.68 -34 40 C-34.99 39.67 -35.98 39.34 -37 39 C-35.375 38.25 -35.375 38.25 -33 38 C-29.75 39.9375 -29.75 39.9375 -27 42 C-25.39585785 40.81476003 -25.39585785 40.81476003 -24 39 C-23.74930087 36.37429296 -23.74930087 36.37429296 -24 34 C-26.37429296 33.74930087 -26.37429296 33.74930087 -29 34 C-29.515625 34.515625 -30.03125 35.03125 -30.5625 35.5625 C-31.036875 36.036875 -31.51125 36.51125 -32 37 C-34.1875 36.6875 -34.1875 36.6875 -36 36 C-33.11593757 32.59156258 -31.6291735 31.13408616 -27.1875 30.1875 C-25.6096875 30.0946875 -25.6096875 30.0946875 -24 30 C-23.896875 28.906875 -23.79375 27.81375 -23.6875 26.6875 C-23 23 -23 23 -21.875 21 C-18.85200363 19.38773527 -16.2411345 20.32731171 -13 21 C-13.226875 20.29875 -13.45375 19.5975 -13.6875 18.875 C-14.12147802 14.88240223 -13.21479352 13.35574776 -11 10 C-9.05160438 8.10021301 -7.03754065 6.34342837 -4.9375 4.61328125 C-3.18572854 3.15464896 -1.58318408 1.63760604 0 0 Z " fill="#4293C5" transform="translate(66,172)"/>
<path d="M0 0 C2.61984486 1.30992243 3.03394425 2.25045672 4 5 C3.91700943 8.98354733 3.45372869 10.52174543 0.6875 13.4375 C-2 15 -2 15 -4.3125 14.75 C-4.869375 14.5025 -5.42625 14.255 -6 14 C-6.1546875 15.6396875 -6.1546875 15.6396875 -6.3125 17.3125 C-7 21 -7 21 -8.1875 22.9375 C-10.95588471 24.56034621 -12.85545467 24.44922076 -16 24 C-18.375 22.375 -18.375 22.375 -20 20 C-20.45339217 16.82625484 -20.58558918 14.94344924 -18.875 12.1875 C-16.33323785 10.57771731 -13.9601892 10.32890991 -11 10 C-10.731875 8.906875 -10.46375 7.81375 -10.1875 6.6875 C-8.19572095 0.50250191 -6.4993322 -0.55313466 0 0 Z " fill="#488EC3" transform="translate(96,148)"/>
<path d="M0 0 C2 2 2 2 2.375 5.4375 C2 9 2 9 0.375 10.875 C-2.41287895 12.19557424 -4.94540484 12.65288691 -8 13 C-7.938125 13.928125 -7.87625 14.85625 -7.8125 15.8125 C-8 19 -8 19 -9 20.8125 C-12.18068454 22.70103144 -15.33469879 22.69956547 -19 23 C-22.03617571 17.77777778 -22.03617571 17.77777778 -21.875 14.3125 C-20.87699986 11.6749282 -20.39363328 10.51596775 -18 9 C-14.3125 8.8125 -14.3125 8.8125 -11 9 C-11.04125 7.906875 -11.0825 6.81375 -11.125 5.6875 C-11 2 -11 2 -9 -1 C-5.50081292 -2.5686011 -3.32651219 -1.66325609 0 0 Z " fill="#507FBB" transform="translate(214,33)"/>
<path d="M0 0 C1.32 1.65 2.64 3.3 4 5 C3.175 5.474375 2.35 5.94875 1.5 6.4375 C-1.24558577 9.25172542 -1.42250274 9.8251818 -1.5625 13.5625 C-1.39565221 16.83486951 -1.34330965 17.64596192 1 20.0625 C1.66 20.371875 2.32 20.68125 3 21 C2.7525 20.484375 2.505 19.96875 2.25 19.4375 C1.84972036 15.53477349 3.93220772 13.25833935 6 10 C8 12 8 12 8.25 15.4375 C8 19 8 19 6 22 C5.92094936 24.33199388 5.91201231 26.66832622 6 29 C7.32 29.66 8.64 30.32 10 31 C9.67 31.33 9.34 31.66 9 32 C3.93490804 31.6623272 0.01166204 31.3430517 -4 28 C-7.13365935 23.68063171 -8.68333453 20.36549809 -8.390625 14.9921875 C-7.67784276 11.35699807 -6.16868811 9.01206682 -4 6 C-1.75 4.5625 -1.75 4.5625 0 4 C0 2.68 0 1.36 0 0 Z " fill="#24C3D9" transform="translate(118,359)"/>
<path d="M0 0 C1.91015625 0.40625 1.91015625 0.40625 4.47265625 1.84375 C6.37186567 5.22929723 6.19310052 7.50780665 5.59765625 11.28515625 C4.56627896 14.46718959 2.70182597 15.70401236 -0.08984375 17.40625 C-0.74984375 18.06625 -1.40984375 18.72625 -2.08984375 19.40625 C-9.81538378 13.73280654 -9.81538378 13.73280654 -10.83984375 8.78125 C-9.37856072 2.20547636 -6.70060569 -0.50097986 0 0 Z " fill="#10ACD1" transform="translate(376.08984375,113.59375)"/>
<path d="M0 0 C1.56672245 2.76480433 1.45226435 4.75688517 1.0625 7.875 C-0.375 9.4375 -0.375 9.4375 -1.9375 10.875 C-2.65947162 13.48111077 -2.65947162 13.48111077 -2.9375 15.875 C-7.40101295 14.47218164 -9.7463079 12.23414958 -12.9375 8.875 C-15.71010299 6.93701737 -15.71010299 6.93701737 -17.9375 5.875 C-13.79263948 0.04149259 -7.126145 -4.13776161 0 0 Z " fill="#04AFC2" transform="translate(410.9375,338.125)"/>
<path d="M0 0 C2.3125 1.625 2.3125 1.625 4 4 C4.66312932 7.89588473 4.39930803 9.4276585 2.125 12.6875 C1.42375 13.450625 0.7225 14.21375 0 15 C-0.99 16.485 -0.99 16.485 -2 18 C-5.3 14.7 -8.6 11.4 -12 8 C-9.41071516 2.82143032 -6.25623582 -1.28333042 0 0 Z " fill="#2FB3D5" transform="translate(408,86)"/>
<path d="M0 0 C2.34949004 2.04633004 2.87878102 3.40905746 3.5 6.4375 C2.79115235 10.07034422 0.63471865 11.49380421 -2 14 C-2.33 15.32 -2.66 16.64 -3 18 C-6.3 14.7 -9.6 11.4 -13 8 C-7.62790698 -0.95348837 -7.62790698 -0.95348837 0 0 Z " fill="#05B9D8" transform="translate(293,203)"/>
<path d="M0 0 C3 2.0625 3 2.0625 5 5 C5.1875 8.5 5.1875 8.5 4 12 C2.13864327 14.04033333 0.28504973 15.39560338 -2 17 C-2 14.7915684 -1.97557075 12.58310343 -1.9375 10.375 C-1.60654835 7.1621539 -1.60654835 7.1621539 -3 6 C-5.29633824 9.44450737 -5.54016485 11.93812283 -6 16 C-9.875 14.25 -9.875 14.25 -11 12 C-11.57142857 4.91428571 -11.57142857 4.91428571 -9.4375 1.5 C-6.00863886 -0.61006839 -3.95779649 -0.62491523 0 0 Z " fill="#3279B7" transform="translate(127,114)"/>
<path d="M0 0 C3.16790978 2.75937842 6.53767719 5.88595978 7.45703125 10.08984375 C7.4375 12 7.4375 12 7 15 C5.33333333 15 3.66666667 15 2 15 C0.576875 15.0928125 0.576875 15.0928125 -0.875 15.1875 C-4 15 -4 15 -6.375 13.875 C-8 12 -8 12 -8.625 9.1875 C-7.81355134 5.04911182 -4.70656869 0 0 0 Z " fill="#07B6D6" transform="translate(311,180)"/>
<path d="M0 0 C0.061875 0.70125 0.12375 1.4025 0.1875 2.125 C1.29201202 6.0332733 3.28230992 8.00357248 6 11 C2 11 2 11 -0.0625 9.0625 C-0.701875 8.381875 -1.34125 7.70125 -2 7 C-2.99 6.67 -3.98 6.34 -5 6 C-4.58996775 8.87022573 -4.19941039 9.8308033 -1.9375 11.75 C0.96403234 15.11952143 0.29015714 17.64764283 0 22 C-0.66 22.33 -1.32 22.66 -2 23 C-2.0825 21.9275 -2.165 20.855 -2.25 19.75 C-3.05729242 15.71353791 -3.73357163 14.40178557 -7 12 C-7.99 12 -8.98 12 -10 12 C-10.33 13.98 -10.66 15.96 -11 18 C-8.64632287 18.6878236 -8.64632287 18.6878236 -6 19 C-5.01 18.34 -4.02 17.68 -3 17 C-3.875 20.875 -3.875 20.875 -5 22 C-8.60277895 22.40030877 -10.3770462 22.44262507 -13.375 20.3125 C-15 18 -15 18 -15.625 15.6875 C-14.35689514 10.23464912 -5.95446095 0 0 0 Z " fill="#22BBCB" transform="translate(434,307)"/>
<path d="M0 0 C1.875 1.625 1.875 1.625 3 4 C2.67272727 10.32727273 2.67272727 10.32727273 0 13 C-3.375 13.4375 -3.375 13.4375 -7 13 C-9.5 10.875 -9.5 10.875 -11 8 C-11.0625 4.875 -11.0625 4.875 -10 2 C-6.59299918 -0.93380626 -4.22462067 -1.66761342 0 0 Z " fill="#1DC0D6" transform="translate(97,399)"/>
<path d="M0 0 C3.625 0.4375 3.625 0.4375 6.125 2.625 C7.625 5.4375 7.625 5.4375 7.5 8.0625 C6.625 10.4375 6.625 10.4375 4.625 13.4375 C-2.35174419 14.2126938 -2.35174419 14.2126938 -5.4375 11.875 C-6.76774773 8.4163559 -6.23107025 5.9934841 -5.375 2.4375 C-3.375 0.4375 -3.375 0.4375 0 0 Z " fill="#1BC0D5" transform="translate(82.375,408.5625)"/>
<path d="M0 0 C0.66 1.32 1.32 2.64 2 4 C2.66 4 3.32 4 4 4 C4.35882213 7.22939919 4.27258004 8.61209763 2.375 11.3125 C-0.6909559 13.49094235 -2.30818203 13.53839012 -6 13 C-8.375 11.875 -8.375 11.875 -10 10 C-10.62060815 6.35392711 -10.47464453 4.69371124 -8.375 1.625 C-5.3962104 -0.4131192 -3.53677664 -0.32152515 0 0 Z " fill="#1AB9CB" transform="translate(463,282)"/>
<path d="M0 0 C3.37013879 0.67402776 4.51677007 1.7087875 6.5 4.5 C7.11793165 8.20758991 7.00197249 9.7935202 4.8125 12.875 C2.5 14.5 2.5 14.5 0 14.9375 C-3.09443084 14.3959746 -4.42308202 13.88460953 -6.5 11.5 C-7.08004676 7.51217855 -7.13226055 5.41326523 -4.8125 2.0625 C-2.5 0.5 -2.5 0.5 0 0 Z " fill="#16B7C9" transform="translate(449.5,291.5)"/>
<path d="M0 0 C6.75177305 -0.643026 6.75177305 -0.643026 10.0625 1.0625 C11.60126391 4.24261207 10.83437295 6.66250821 10 10 C8.875 12 8.875 12 7 13 C0.66666667 12.66666667 0.66666667 12.66666667 -2 10 C-2.31537716 5.66356399 -2.44897847 3.67346771 0 0 Z " fill="#23C5DD" transform="translate(195,293)"/>
<path d="M0 0 C3.375 0.9375 3.375 0.9375 5.375 3.9375 C5.69662076 7.0250593 5.86224515 9.07765561 4.3125 11.8125 C1.2680714 13.58023274 -1.1881012 13.30573916 -4.625 12.9375 C-6.5625 11.8125 -6.5625 11.8125 -7.625 9.9375 C-8.16352618 6.32168138 -8.04736225 4.59638511 -6.0625 1.5 C-3.625 -0.0625 -3.625 -0.0625 0 0 Z " fill="#20C5DC" transform="translate(210.625,282.0625)"/>
<path d="M0 0 C3.5625 0.375 3.5625 0.375 5.5625 1.9375 C6.99385511 5.42642809 6.496466 7.77255972 5.5625 11.375 C2.5625 13.375 2.5625 13.375 -1 13.1875 C-4.4375 12.375 -4.4375 12.375 -6.4375 9.375 C-5.82419238 0.63536644 -5.82419238 0.63536644 0 0 Z " fill="#24BAC8" transform="translate(343.4375,398.625)"/>
<path d="M0 0 C3.8231624 1.50195666 5.5556377 3.76713373 8 7 C8.98230498 8.0173873 9.97469597 9.02596117 11 10 C9.41641358 13.16717283 8.54736301 14.73268318 5.3125 16.3125 C4.549375 16.539375 3.78625 16.76625 3 17 C3.33 16.01 3.66 15.02 4 14 C4.03954234 11.66700175 4.04401732 9.33291811 4 7 C3.01 7.66 2.02 8.32 1 9 C0.26393501 12.56769552 0.26393501 12.56769552 0 16 C-3.875 14.125 -3.875 14.125 -5 13 C-5.43334269 9.94802936 -5.500309 7.04443352 -5 4 C-2.5 1.4375 -2.5 1.4375 0 0 Z " fill="#09BBD4" transform="translate(121,364)"/>
<path d="M0 0 C2.375 2.1875 2.375 2.1875 4 5 C3.93148663 7.87756134 3.3436338 9.427277 1.875 11.875 C-1.18336891 13.71002135 -3.65608204 12.79038061 -7 12 C-9 10 -9 10 -9.375 6.5625 C-9 3 -9 3 -7.3125 1.0625 C-4.50851197 -0.22581882 -3.04360356 -0.60872071 0 0 Z " fill="#25B9C8" transform="translate(336,409)"/>
<path d="M0 0 C0.66 0.33 1.32 0.66 2 1 C1.77441406 1.59554688 1.54882812 2.19109375 1.31640625 2.8046875 C0.73094962 5.03914396 0.73094962 5.03914396 2.21484375 6.6328125 C2.78332031 7.12523437 3.35179687 7.61765625 3.9375 8.125 C4.98901394 9.04956579 6.01707166 10.00282632 7 11 C7 11.66 7 12.32 7 13 C3.06326356 11.68775452 0.77280706 10.08089673 -2 7 C-2.99 7.33 -3.98 7.66 -5 8 C-4.4946875 8.50789063 -3.989375 9.01578125 -3.46875 9.5390625 C1.86506024 15.19036145 1.86506024 15.19036145 2.5625 19.375 C2 22 2 22 0 24 C-1.890625 23.5078125 -1.890625 23.5078125 -4 22 C-4.78841542 19.21701124 -5.33350841 16.71204274 -5.75 13.875 C-5.93755859 12.74384766 -5.93755859 12.74384766 -6.12890625 11.58984375 C-6.43510476 9.72909898 -6.71964088 7.86481296 -7 6 C-4.69 4.02 -2.38 2.04 0 0 Z " fill="#23C4DC" transform="translate(182,306)"/>
<path d="M0 0 C3.875 1.75 3.875 1.75 5 4 C5.375 6.8125 5.375 6.8125 5 10 C2.53856432 12.9271127 0.17875822 14.88082786 -3 17 C-2.34 13.04 -1.68 9.08 -1 5 C-1.66 5 -2.32 5 -3 5 C-4.88391785 8.26545761 -5.49287967 11.28111761 -6 15 C-7.32 14.34 -8.64 13.68 -10 13 C-9.48223379 8.89552608 -7.35372556 7.04300477 -4.4375 4.25 C-3.61121094 3.45078125 -2.78492188 2.6515625 -1.93359375 1.828125 C-1.29550781 1.22484375 -0.65742188 0.6215625 0 0 Z " fill="#04AFC1" transform="translate(377,365)"/>
<path d="M0 0 C0.66 0.99 1.32 1.98 2 3 C-0.31 4.98 -2.62 6.96 -5 9 C-5 5.48283697 -4.17554415 4.62878252 -2 2 C-3.98 2.99 -3.98 2.99 -6 4 C-6 5.65 -6 7.3 -6 9 C-3.62694422 9.41780879 -3.62694422 9.41780879 -1 9 C0.8624438 6.59141286 0.8624438 6.59141286 2 4 C2.66 4.33 3.32 4.66 4 5 C2.25 10.75 2.25 10.75 0 13 C-3.59411792 13.46879799 -5.35164037 13.44361448 -8.375 11.375 C-10.46379841 8.32214079 -10.54068562 6.63031776 -10 3 C-7.05269308 -0.8850864 -4.59616126 -1.37884838 0 0 Z " fill="#4890C4" transform="translate(86,159)"/>
<path d="M0 0 C1.65 0 3.3 0 5 0 C7.32637691 5.79622721 8.43680971 9.86090397 7 16 C6.34 16 5.68 16 5 16 C5 15.34 5 14.68 5 14 C4.401875 13.731875 3.80375 13.46375 3.1875 13.1875 C1.02775192 12.01506533 -0.35790256 10.80630718 -2 9 C-2.99 9.33 -3.98 9.66 -5 10 C-3.88838313 7.69125728 -2.70250586 5.50799046 -1.375 3.3125 C0.08517923 1.30514492 0.08517923 1.30514492 0 0 Z " fill="#0CB4D5" transform="translate(316,170)"/>
<path d="M0 0 C2.39073445 3.82517513 2.55966552 7.59665524 3 12 C-0.3 12.66 -3.6 13.32 -7 14 C-7.34707158 8.70715835 -7.34707158 8.70715835 -7 6 C-5.1875 4 -5.1875 4 -3 3 C-2.01 3 -1.02 3 0 3 C0 2.01 0 1.02 0 0 Z " fill="#0BBCD6" transform="translate(166,323)"/>
<path d="M0 0 C2.56343469 1.77587343 4.79104347 3.80411422 7 6 C6.67 6.66 6.34 7.32 6 8 C3.53199953 6.84826645 1.95216435 5.95216435 0 4 C-2.58354218 3.83312552 -2.58354218 3.83312552 -5 4 C-5.33498301 6.33165034 -5.33498301 6.33165034 -5 9 C-3.10415891 11.31377147 -3.10415891 11.31377147 -1 13 C-1.33 13.99 -1.66 14.98 -2 16 C-7.875 11.25 -7.875 11.25 -9 9 C-9.44720497 3.74534161 -9.44720497 3.74534161 -7.875 1.125 C-4.9583362 -0.62499828 -3.35889159 -0.58134662 0 0 Z " fill="#30B2D4" transform="translate(418,76)"/>
<path d="M0 0 C5.34965035 -0.35664336 5.34965035 -0.35664336 7.9375 1.0625 C9.6955698 4.26839198 8.86728565 6.53085741 8 10 C6.81183196 12.46736509 5.46905028 14.67795278 4 17 C-0.13639336 15.40907948 -3.23213248 12.39525082 -6 9 C-6 8.34 -6 7.68 -6 7 C-4.68 7 -3.36 7 -2 7 C0.25 9.5 0.25 9.5 2 12 C4.35448165 9.44931155 4.98327924 8.28982642 5.1875 4.75 C5.125625 3.8425 5.06375 2.935 5 2 C3.35 1.67 1.7 1.34 0 1 C0 0.67 0 0.34 0 0 Z " fill="#4D87C0" transform="translate(153,87)"/>
<path d="M0 0 C5.2295082 2.3442623 5.2295082 2.3442623 7 5 C7.2529766 7.71815286 7.1347974 10.25911949 7 13 C6.360625 12.814375 5.72125 12.62875 5.0625 12.4375 C4.0415625 12.2209375 4.0415625 12.2209375 3 12 C2.67 12.33 2.34 12.66 2 13 C-1.62516277 13.40279586 -3.39766602 13.41700045 -6.4375 11.3125 C-8 9 -8 9 -7.75 6.25 C-7.5025 5.5075 -7.255 4.765 -7 4 C-6.5359375 4.9590625 -6.5359375 4.9590625 -6.0625 5.9375 C-5.1654837 7.93610821 -5.1654837 7.93610821 -4 9 C-1.54207971 9.33343551 -1.54207971 9.33343551 1 9 C1.66 8.01 2.32 7.02 3 6 C2.505 5.566875 2.01 5.13375 1.5 4.6875 C0 3 0 3 0 0 Z " fill="#5085BF" transform="translate(177,66)"/>
<path d="M0 0 C4.14204145 0.96326545 6.68632211 3.71896031 9.6875 6.625 C9.3575 7.285 9.0275 7.945 8.6875 8.625 C6.21949953 7.47326645 4.63966435 6.57716435 2.6875 4.625 C0.11688689 3.97732207 0.11688689 3.97732207 -2.3125 3.625 C-2.64698259 6.457168 -2.64698259 6.457168 -2.3125 9.625 C-0.3749994 11.81277466 -0.3749994 11.81277466 1.6875 13.625 C1.6875 14.615 1.6875 15.605 1.6875 16.625 C-1.69269657 15.17634433 -4.04309668 13.54280427 -6.3125 10.625 C-6.93043165 6.91741009 -6.81447249 5.3314798 -4.625 2.25 C-2.3125 0.625 -2.3125 0.625 0 0 Z " fill="#22BBCB" transform="translate(415.3125,325.375)"/>
<path d="M0 0 C2.27002476 1.48246515 4.02107308 3.11530769 6 5 C5.67 5.99 5.34 6.98 5 8 C4.67 7.34 4.34 6.68 4 6 C1.44746603 4.50368699 -1.05542056 3.39261059 -4 3 C-4.66 3.66 -5.32 4.32 -6 5 C-5.60495559 7.9628331 -4.40182371 10.38326241 -3 13 C-2.34 13 -1.68 13 -1 13 C-1.33 13.99 -1.66 14.98 -2 16 C-7.875 11.25 -7.875 11.25 -9 9 C-9.44720497 3.74534161 -9.44720497 3.74534161 -7.875 1.125 C-5.01213009 -0.59272195 -3.28831781 -0.51581456 0 0 Z " fill="#24B8C6" transform="translate(302,443)"/>
<path d="M0 0 C3.30789711 1.40585627 5.18200555 3.34713508 7.5 6.0625 C7.5 6.7225 7.5 7.3825 7.5 8.0625 C5.03199953 6.91076645 3.45216435 6.01466435 1.5 4.0625 C-1.58347826 3.89568891 -1.58347826 3.89568891 -4.5 4.0625 C-4.04663921 8.93612847 -2.7910841 11.45292389 0.5 15.0625 C-0.49 15.3925 -1.48 15.7225 -2.5 16.0625 C-2.5 15.4025 -2.5 14.7425 -2.5 14.0625 C-3.16 14.0625 -3.82 14.0625 -4.5 14.0625 C-6.7969155 11.7655845 -7.46250906 10.28744561 -8 7.0625 C-7.5 4.0625 -7.5 4.0625 -5.3125 1.625 C-2.5 0.0625 -2.5 0.0625 0 0 Z " fill="#29C2DD" transform="translate(300.5,191.9375)"/>
<path d="M0 0 C2.9375 0.5625 2.9375 0.5625 5.375 2.125 C6.9375 4.5625 6.9375 4.5625 6.9375 8.125 C5.9375 11.5625 5.9375 11.5625 3.875 13.5 C3.235625 13.850625 2.59625 14.20125 1.9375 14.5625 C1.9375 10.5625 1.9375 10.5625 2.9375 9.5625 C2.97813832 7.89632885 2.980221 6.22861905 2.9375 4.5625 C0.52104218 4.39562552 0.52104218 4.39562552 -2.0625 4.5625 C-2.7225 5.2225 -3.3825 5.8825 -4.0625 6.5625 C-6.1875 6.1875 -6.1875 6.1875 -8.0625 5.5625 C-3.95125453 0.72574063 -3.95125453 0.72574063 0 0 Z " fill="#23B8C5" transform="translate(289.0625,452.4375)"/>
<path d="M0 0 C0.86625 0.37125 0.86625 0.37125 1.75 0.75 C1.09 1.12125 0.43 1.4925 -0.25 1.875 C-2.60303045 3.65894778 -2.60303045 3.65894778 -2.5 6.9375 C-2.4175 7.865625 -2.335 8.79375 -2.25 9.75 C-0.27 9.75 1.71 9.75 3.75 9.75 C4.08 8.1 4.41 6.45 4.75 4.75 C5.41 4.75 6.07 4.75 6.75 4.75 C6.96917317 7.45313576 7.07851983 9.18958382 5.6875 11.5625 C2.65624457 13.42036623 0.21577141 13.12133265 -3.25 12.75 C-5.1875 11.625 -5.1875 11.625 -6.25 9.75 C-6.80516073 6.02249227 -6.7172176 4.40076737 -4.5 1.3125 C-2.25 -0.25 -2.25 -0.25 0 0 Z " fill="#24C6DD" transform="translate(209.25,282.25)"/>
<path d="M0 0 C0.66 0.33 1.32 0.66 2 1 C2 1.66 2 2.32 2 3 C1.34 3 0.68 3 0 3 C-1.85776765 6.13498292 -2.20140476 8.37471432 -2 12 C1.71599191 12.20086443 2.77208445 12.1519437 6 10 C5.42655063 12.86724686 5.1385485 13.8614515 3 16 C-0.42146435 15.85440577 -2.33818327 15.61769562 -4.875 13.25 C-6.30072309 10.39855382 -6.67432576 9.14685356 -6 6 C-4.18740458 3.7776004 -2.16521305 1.87522916 0 0 Z " fill="#24B9C6" transform="translate(309,430)"/>
<path d="M0 0 C3.375 0.5 3.375 0.5 5.3125 1.625 C6.90490283 4.43512264 6.82819325 6.32764724 6.375 9.5 C4.375 11.875 4.375 11.875 2.375 13.5 C1.715 12.84 1.055 12.18 0.375 11.5 C1.035 10.84 1.695 10.18 2.375 9.5 C2.54177282 5.91656024 2.54177282 5.91656024 2.375 2.5 C-0.54017292 3.57401108 -2.40310176 4.27810176 -4.625 6.5 C-6.75 6.125 -6.75 6.125 -8.625 5.5 C-5.81065365 2.0886711 -4.46440026 0.61577935 0 0 Z " fill="#24BCCB" transform="translate(405.625,336.5)"/>
<path d="M0 0 C2.7074495 0.28008098 4.05757563 1.04318172 6.25 2.6875 C8.47194463 5.62364112 8.32693436 7.40372208 8 11 C7 10 6 9 5 8 C3.7934375 8.2784375 3.7934375 8.2784375 2.5625 8.5625 C1.716875 8.706875 0.87125 8.85125 0 9 C-0.66 8.34 -1.32 7.68 -2 7 C-1.43181818 1.43181818 -1.43181818 1.43181818 0 0 Z " fill="#05B1C4" transform="translate(424,318)"/>
<path d="M0 0 C1.67542976 0.28604898 3.34385343 0.61781233 5 1 C5.8125 3.1875 5.8125 3.1875 6 6 C3.5625 8.8125 3.5625 8.8125 1 11 C-1.33333333 8.66666667 -3.66666667 6.33333333 -6 4 C-5.195625 3.525625 -4.39125 3.05125 -3.5625 2.5625 C-1.15246512 1.23099846 -1.15246512 1.23099846 0 0 Z " fill="#2886BE" transform="translate(37,205)"/>
<path d="M0 0 C1.875 0.3125 1.875 0.3125 4 1 C4.66 1.99 5.32 2.98 6 4 C5.34 4 4.68 4 4 4 C3.87625 4.61875 3.7525 5.2375 3.625 5.875 C3 8 3 8 1 10 C-2.53571429 9.46428571 -2.53571429 9.46428571 -4 8 C-4.6875 6.0625 -4.6875 6.0625 -5 4 C-4.34 3.34 -3.68 2.68 -3 2 C-2.01 2 -1.02 2 0 2 C0 1.34 0 0.68 0 0 Z " fill="#18C2DA" transform="translate(200,293)"/>
<path d="M0 0 C1.2065625 0.0309375 1.2065625 0.0309375 2.4375 0.0625 C3.1875 2.75 3.1875 2.75 3.4375 6.0625 C1.5 8.9375 1.5 8.9375 -0.5625 11.0625 C-2.2125 9.0825 -3.8625 7.1025 -5.5625 5.0625 C-3.15007962 0.07683121 -3.15007962 0.07683121 0 0 Z " fill="#3475B5" transform="translate(155.5625,88.9375)"/>
<path d="M0 0 C3.82352106 1.5577308 6.29205593 3.91595258 9 7 C9 7.99 9 8.98 9 10 C2.5899705 9.51622419 2.5899705 9.51622419 0 7.25 C-1.25805827 4.4193689 -0.89063845 2.91481676 0 0 Z " fill="#30B1D4" transform="translate(420,69)"/>
<path d="M0 0 C2.625 0.25 2.625 0.25 4.4375 1.375 C6.17698782 4.12155972 6.02269128 6.06846974 5.625 9.25 C4.125 11.125 4.125 11.125 2.625 12.25 C1.635 11.92 0.645 11.59 -0.375 11.25 C0.285 10.59 0.945 9.93 1.625 9.25 C1.625 8.26 1.625 7.27 1.625 6.25 C1.17125 6.745 0.7175 7.24 0.25 7.75 C-1.375 9.25 -1.375 9.25 -3.375 9.25 C-3.0625 7.3125 -3.0625 7.3125 -2.375 5.25 C-1.385 4.92 -0.395 4.59 0.625 4.25 C0.625 3.59 0.625 2.93 0.625 2.25 C-0.695 1.92 -2.015 1.59 -3.375 1.25 C-2.375 0.25 -2.375 0.25 0 0 Z " fill="#24BCCD" transform="translate(450.375,292.75)"/>
<path d="M0 0 C-1.15173355 2.46800047 -2.04783565 4.04783565 -4 6 C-4.16687448 8.58354218 -4.16687448 8.58354218 -4 11 C-1.39417629 11.93065133 -0.35801776 12.14917407 2.25 11.0625 C2.8275 10.711875 3.405 10.36125 4 10 C3.125 13.875 3.125 13.875 2 15 C-1.24679295 15.28860382 -3.40727258 15.28076562 -6.375 13.875 C-8 12 -8 12 -8.625 9.1875 C-7.81355134 5.04911182 -4.70656869 0 0 0 Z " fill="#29C1DC" transform="translate(311,180)"/>
<path d="M0 0 C2.5 0.125 2.5 0.125 3.5 1.125 C3.8125 4 3.8125 4 3.5 7.125 C1.5 9 1.5 9 -0.5 10.125 C-2.15 8.475 -3.8 6.825 -5.5 5.125 C-3.09504132 0.15475207 -3.09504132 0.15475207 0 0 Z " fill="#0FA8CE" transform="translate(405.5,88.875)"/>
<path d="M0 0 C3.375 0.5625 3.375 0.5625 5.3125 2.25 C6.58804072 5.02617686 6.90326174 6.5438615 6.375 9.5625 C4.5 11.875 4.5 11.875 2.375 13.5625 C1.715 13.5625 1.055 13.5625 0.375 13.5625 C0.705 13.005625 1.035 12.44875 1.375 11.875 C2.5059601 9.25965478 2.53162974 7.3818354 2.375 4.5625 C0.58300528 3.77967352 0.58300528 3.77967352 -1.625 3.5625 C-2.97289347 4.54278616 -4.30712715 5.54221135 -5.625 6.5625 C-6.615 6.2325 -7.605 5.9025 -8.625 5.5625 C-5.81975573 2.16220392 -4.4339439 0.68802578 0 0 Z " fill="#28C3DD" transform="translate(289.625,202.4375)"/>
<path d="M0 0 C0.66 0.33 1.32 0.66 2 1 C-1.53461036 5.67480725 -5.35389072 8.96182527 -10.109375 12.38671875 C-12.26993122 13.94913561 -12.26993122 13.94913561 -13 17 C-14.70703125 18.5 -14.70703125 18.5 -16.8125 20 C-17.49957031 20.495 -18.18664062 20.99 -18.89453125 21.5 C-19.58933594 21.995 -20.28414063 22.49 -21 23 C-22.33582088 23.99667465 -23.66990172 24.99570107 -25 26 C-23.64941886 22.98611927 -22.14395225 20.8965323 -19.8046875 18.57421875 C-18.85928101 17.63074585 -18.85928101 17.63074585 -17.89477539 16.66821289 C-17.22824951 16.01457764 -16.56172363 15.36094238 -15.875 14.6875 C-15.20009521 14.01904053 -14.52519043 13.35058105 -13.82983398 12.66186523 C-9.36239897 8.26323442 -4.81000011 4.02469397 0 0 Z " fill="#536AB0" transform="translate(89,59)"/>
<path d="M0 0 C2.4375 0.1875 2.4375 0.1875 3.4375 1.1875 C3.6875 3.5625 3.6875 3.5625 3.4375 6.1875 C1.9375 8 1.9375 8 0.4375 9.1875 C-1.5625 8.1875 -3.5625 7.1875 -5.5625 6.1875 C-4.80970535 2.42352673 -4.21600801 0.30848839 0 0 Z " fill="#02ACBC" transform="translate(289.5625,455.8125)"/>
<path d="M0 0 C4.875 4.75 4.875 4.75 6 7 C4.3125 8.5625 4.3125 8.5625 2 10 C-0.75 9.6875 -0.75 9.6875 -3 9 C-3.75 6.75 -3.75 6.75 -4 4 C-2.0625 1.6875 -2.0625 1.6875 0 0 Z " fill="#2A83BD" transform="translate(59,183)"/>
<path d="M0 0 C0.66 0 1.32 0 2 0 C4.04169485 2.90548882 5 4.40142046 5 8 C3 10 3 10 0.4375 10.1875 C-2 10 -2 10 -3 9 C-3.33366292 5.91361798 -3.22870204 4.38463525 -1.625 1.6875 C-0.820625 0.8521875 -0.820625 0.8521875 0 0 Z " fill="#03ADBD" transform="translate(309,433)"/>
<path d="M0 0 C0.66 0 1.32 0 2 0 C1.979375 0.804375 1.95875 1.60875 1.9375 2.4375 C1.70366379 4.93354885 1.70366379 4.93354885 3 6 C4.66617115 6.04063832 6.33388095 6.042721 8 6 C8.66 4.35 9.32 2.7 10 1 C10.66 1 11.32 1 12 1 C11.6875 4.375 11.6875 4.375 11 8 C8 10 8 10 4.4375 9.8125 C1 9 1 9 -1 6 C-1.1875 3.375 -1.1875 3.375 -1 1 C-0.67 0.67 -0.34 0.34 0 0 Z " fill="#24B9C8" transform="translate(338,402)"/>
<path d="M0 0 C0.33 0 0.66 0 1 0 C2.31626692 3.61973402 3 6.09567131 3 10 C1.3125 13.25 1.3125 13.25 -1 16 C-3.6875 16.4375 -3.6875 16.4375 -6 16 C-7 15 -7 15 -7.1875 12.5625 C-7 10 -7 10 -5 8 C-4.01 8 -3.02 8 -2 8 C-2.33 8.61875 -2.66 9.2375 -3 9.875 C-4.14193235 11.91018344 -4.14193235 11.91018344 -4 14 C-2.35 12.02 -0.7 10.04 1 8 C0.67 7.67 0.34 7.34 0 7 C-0.04092937 4.66702567 -0.04241723 2.33294775 0 0 Z " fill="#3182BC" transform="translate(86,153)"/>
<path d="M0 0 C0.66 1.32 1.32 2.64 2 4 C0.37660195 5.70884005 -1.29319053 7.37446717 -3 9 C-3.66 9 -4.32 9 -5 9 C-3.125 5.125 -3.125 5.125 -2 4 C-3.94074861 4.27617533 -3.94074861 4.27617533 -6 5 C-6.99 6.485 -6.99 6.485 -8 8 C-8.66 8 -9.32 8 -10 8 C-9.64505955 5.37344067 -9.27538036 3.42031739 -7.8125 1.1875 C-5.20638339 -0.51995571 -3.0400645 -0.20267097 0 0 Z " fill="#5581BC" transform="translate(202,42)"/>
<path d="M0 0 C0.66 0 1.32 0 2 0 C2.66 2.31 3.32 4.62 4 7 C5.65 6.67 7.3 6.34 9 6 C9.33 4.68 9.66 3.36 10 2 C10.66 2 11.32 2 12 2 C12.22223194 4.74086056 12.34781139 6.43963721 10.875 8.8125 C8.11646047 10.55957504 6.20161236 10.39203417 3 10 C0.625 8.875 0.625 8.875 -1 7 C-1.3125 3.875 -1.3125 3.875 -1 1 C-0.67 0.67 -0.34 0.34 0 0 Z " fill="#24BCCD" transform="translate(454,285)"/>
<path d="M0 0 C0.99 0 1.98 0 3 0 C2.9175 0.9075 2.835 1.815 2.75 2.75 C3.05671986 6.73735823 4.23095015 7.32027434 7 10 C6.75 12.25 6.75 12.25 6 14 C3.95880212 12.38405168 1.95927063 10.7143618 0 9 C0 8.34 0 7.68 0 7 C-0.99 6.67 -1.98 6.34 -3 6 C-2.34 5.67 -1.68 5.34 -1 5 C-0.34444881 2.47266765 -0.34444881 2.47266765 0 0 Z " fill="#31C5D8" transform="translate(71,417)"/>
<path d="M0 0 C1.98 1.65 3.96 3.3 6 5 C4.8125 7 4.8125 7 3 9 C0.375 9.3125 0.375 9.3125 -2 9 C-3 8 -3 8 -3.25 5.625 C-3 3 -3 3 -1.5 1.1875 C-1.005 0.795625 -0.51 0.40375 0 0 Z " fill="#3671B4" transform="translate(175,67)"/>
<path d="M0 0 C0.33 0 0.66 0 1 0 C1.33 1.65 1.66 3.3 2 5 C5.04913228 6.01111093 5.04913228 6.01111093 8 5 C8.72159424 3.35636866 9.39351421 1.68949614 10 0 C10.66 0.33 11.32 0.66 12 1 C11.64780657 3.60623142 11.23526531 5.60789115 9.875 7.875 C6.81663109 9.71002135 4.34391796 8.79038061 1 8 C-1 6 -1 6 -1.1875 3.4375 C-1 1 -1 1 0 0 Z " fill="#25B9C8" transform="translate(328,413)"/>
<path d="M0 0 C0.66 0.33 1.32 0.66 2 1 C1.896875 1.86625 1.79375 2.7325 1.6875 3.625 C2.11458943 8.23756587 3.85042342 9.69294459 7 13 C3 13 3 13 0.8125 11.9375 C-1.81769264 9.12591477 -1.86519593 6.77451401 -2 3 C-1.34 2.01 -0.68 1.02 0 0 Z " fill="#4691C4" transform="translate(72,166)"/>
<path d="M0 0 C-1.43963639 3.35915158 -3.12416589 5.71624938 -6 8 C-8.25 7.75 -8.25 7.75 -10 7 C-10.33 5.68 -10.66 4.36 -11 3 C-9.54293274 2.49632243 -8.08429904 1.99717444 -6.625 1.5 C-5.81289063 1.2215625 -5.00078125 0.943125 -4.1640625 0.65625 C-2 0 -2 0 0 0 Z " fill="#25BDDA" transform="translate(342,164)"/>
<path d="M0 0 C0.66 0.33 1.32 0.66 2 1 C2.25 8.625 2.25 8.625 0 12 C-0.99 11.67 -1.98 11.34 -3 11 C-3.32613618 6.32538149 -2.70582788 3.83325617 0 0 Z " fill="#2FB9D8" transform="translate(374,119)"/>
<path d="M0 0 C0.66 0 1.32 0 2 0 C1.896875 0.886875 1.79375 1.77375 1.6875 2.6875 C2.09498572 7.00684858 3.7722703 8.25642975 7 11 C6.67 11.99 6.34 12.98 6 14 C-0.61491061 8.97404964 -0.61491061 8.97404964 -2.0625 5.3125 C-2 3 -2 3 0 0 Z " fill="#5181BD" transform="translate(188,50)"/>
<path d="M0 0 C0 0.99 0 1.98 0 3 C-3.87684087 4.19287411 -6.91621923 5 -11 5 C-8.6102683 -1.65710974 -6.76304013 -1.12717335 0 0 Z " fill="#30BBDA" transform="translate(348,149)"/>
<path d="M0 0 C2.4375 0.125 2.4375 0.125 5 1 C6.3125 3.5625 6.3125 3.5625 7 6 C6.38125 6.12375 5.7625 6.2475 5.125 6.375 C2.80879168 6.87197356 2.80879168 6.87197356 1 9 C0.01 9 -0.98 9 -2 9 C-0.79618552 6.50638429 0.45428722 4.31856917 2 2 C1.01 1.67 0.02 1.34 -1 1 C-0.67 0.67 -0.34 0.34 0 0 Z " fill="#24C2D7" transform="translate(82,409)"/>
<path d="M0 0 C0.99 0 1.98 0 3 0 C2.9175 0.86625 2.835 1.7325 2.75 2.625 C3.05628741 6.75988007 4.52108722 8.74642697 7 12 C4 12 4 12 1.3125 9.875 C-1 7 -1 7 -1.375 3.75 C-1 1 -1 1 0 0 Z " fill="#22BBCC" transform="translate(438,301)"/>
<path d="M0 0 C2 3.75 2 3.75 2 6 C0.02 6.66 -1.96 7.32 -4 8 C-4 9.65 -4 11.3 -4 13 C-4.99 13.33 -5.98 13.66 -7 14 C-7.34707158 8.70715835 -7.34707158 8.70715835 -7 6 C-5.1875 4 -5.1875 4 -3 3 C-2.01 3 -1.02 3 0 3 C0 2.01 0 1.02 0 0 Z " fill="#2CC6DC" transform="translate(166,323)"/>
<path d="M0 0 C0.66 0.33 1.32 0.66 2 1 C1.50628906 1.50789063 1.01257813 2.01578125 0.50390625 2.5390625 C-4.53847355 7.90379731 -4.53847355 7.90379731 -6 15 C-7.32 14.34 -8.64 13.68 -10 13 C-9.48223379 8.89552608 -7.35372556 7.04300477 -4.4375 4.25 C-3.61121094 3.45078125 -2.78492188 2.6515625 -1.93359375 1.828125 C-1.29550781 1.22484375 -0.65742188 0.6215625 0 0 Z " fill="#13B2C4" transform="translate(377,365)"/>
<path d="M0 0 C0.66 0 1.32 0 2 0 C1.896875 0.86625 1.79375 1.7325 1.6875 2.625 C2.11458943 7.23756587 3.85042342 8.69294459 7 12 C6.34 12.66 5.68 13.32 5 14 C-0.85625555 8.10888579 -0.85625555 8.10888579 -1.4375 3.625 C-1 1 -1 1 0 0 Z " fill="#23B9C7" transform="translate(322,417)"/>
<path d="M0 0 C0.99 0 1.98 0 3 0 C2 2 1 4 0 6 C2.31 4.35 4.62 2.7 7 1 C6.25 3.9375 6.25 3.9375 5 7 C3.0625 8 3.0625 8 1 8 C0.01 7.34 -0.98 6.68 -2 6 C-1.125 1.125 -1.125 1.125 0 0 Z " fill="#08AFBF" transform="translate(331,412)"/>
<path d="M0 0 C4.60794092 0.27105535 6.77984246 2.28413477 9.9609375 5.33203125 C11 7 11 7 10.6640625 9.19921875 C10.44492187 9.79347656 10.22578125 10.38773438 10 11 C8.33035479 9.35718838 6.6643536 7.71067239 5 6.0625 C4.071875 5.14597656 3.14375 4.22945312 2.1875 3.28515625 C0 1 0 1 0 0 Z " fill="#27C4DE" transform="translate(280,210)"/>
<path d="M0 0 C2.87231652 1.28759017 5.19225634 2.37877169 7 5 C7.1875 8.6875 7.1875 8.6875 7 12 C6.01 12.33 5.02 12.66 4 13 C4.0825 12.0925 4.165 11.185 4.25 10.25 C3.94496039 6.28448506 2.85429795 5.58670752 0 3 C0 2.01 0 1.02 0 0 Z " fill="#24B8C6" transform="translate(311,433)"/>
<path d="M0 0 C0.66 0 1.32 0 2 0 C1.896875 0.86625 1.79375 1.7325 1.6875 2.625 C2.11458943 7.23756587 3.85042342 8.69294459 7 12 C3 12 3 12 0.75 9.875 C-1.25765378 6.57671165 -1.4310258 4.79302705 -1 1 C-0.67 0.67 -0.34 0.34 0 0 Z " fill="#24C5DD" transform="translate(188,301)"/>
<path d="M0 0 C2.475 0.99 2.475 0.99 5 2 C5 5 5 5 2.625 7.6875 C0 10 0 10 -2 10 C-0.79618552 7.50638429 0.45428722 5.31856917 2 3 C0.68 3.33 -0.64 3.66 -2 4 C-1.34 2.68 -0.68 1.36 0 0 Z " fill="#5681BD" transform="translate(209,31)"/>
<path d="M0 0 C4 0 4 0 5.73828125 1.42578125 C6.25777344 2.04839844 6.77726562 2.67101562 7.3125 3.3125 C7.84488281 3.92738281 8.37726563 4.54226563 8.92578125 5.17578125 C9.45751953 6.07876953 9.45751953 6.07876953 10 7 C9.67 7.99 9.34 8.98 9 10 C7.68113228 8.90344712 6.37009943 7.79746577 5.0625 6.6875 C4.33160156 6.07261719 3.60070312 5.45773437 2.84765625 4.82421875 C1 3 1 3 0 0 Z " fill="#24BBCA" transform="translate(397,344)"/>
<path d="M0 0 C2.58391118 1.79950957 4.93418366 3.61317961 7 6 C7.4375 9.875 7.4375 9.875 7 13 C6.01 13 5.02 13 4 13 C4.0825 12.0925 4.165 11.185 4.25 10.25 C3.94496039 6.28448506 2.85429795 5.58670752 0 3 C0 2.01 0 1.02 0 0 Z " fill="#2AC2DD" transform="translate(311,182)"/>
<path d="M0 0 C1.134375 0.020625 2.26875 0.04125 3.4375 0.0625 C2.89523019 3.85838866 1.23622437 5.53461993 -1.5625 8.0625 C-2.5525 7.7325 -3.5425 7.4025 -4.5625 7.0625 C-3.2425 5.7425 -1.9225 4.4225 -0.5625 3.0625 C-1.8825 2.4025 -3.2025 1.7425 -4.5625 1.0625 C-3.5625 0.0625 -3.5625 0.0625 0 0 Z " fill="#4D91C4" transform="translate(94.5625,148.9375)"/>
<path d="M0 0 C2.0625 0.4375 2.0625 0.4375 4 1 C2.68 2.65 1.36 4.3 0 6 C1.98 5.01 3.96 4.02 6 3 C6 4.32 6 5.64 6 7 C4.0085944 7.38133299 2.00720923 7.71325582 0 8 C-1 7 -1 7 -1.125 4 C-1 1 -1 1 0 0 Z " fill="#07BDD8" transform="translate(207,285)"/>
<path d="M0 0 C3.26954202 0.56371414 4.82575883 1.49962266 7 4 C7.66 3.01 8.32 2.02 9 1 C8.67 3.31 8.34 5.62 8 8 C7.34 8 6.68 8 6 8 C6 7.34 6 6.68 6 6 C5.38125 5.7525 4.7625 5.505 4.125 5.25 C1.64931313 3.79371361 1.04874998 2.62187494 0 0 Z " fill="#2CC0DC" transform="translate(315,178)"/>
<path d="M0 0 C2.65664779 0.15180845 4.45217862 0.52011425 6.48046875 2.296875 C7.875 3.875 7.875 3.875 10 7 C9.67 7.99 9.34 8.98 9 10 C7.49702124 8.52386015 5.99768715 7.04400843 4.5 5.5625 C3.6646875 4.73878906 2.829375 3.91507812 1.96875 3.06640625 C0 1 0 1 0 0 Z " fill="#26B8C5" transform="translate(281,461)"/>
<path d="M0 0 C2.5 1.75 2.5 1.75 5 4 C5 5.32 5 6.64 5 8 C3.68 8.33 2.36 8.66 1 9 C0.67 6.03 0.34 3.06 0 0 Z " fill="#1CC1D9" transform="translate(177,319)"/>
<path d="M0 0 C2.86207152 1.28299758 5.0245088 2.530636 7 5 C7 5.99 7 6.98 7 8 C3.2047869 6.50902342 1.38957269 4.24299151 -1 1 C-0.67 0.67 -0.34 0.34 0 0 Z " fill="#23B8C6" transform="translate(316,428)"/>
<path d="M0 0 C3.79588866 0.54226981 5.47211993 2.20127563 8 5 C7.67 5.99 7.34 6.98 7 8 C5.8274869 7.04882866 4.66212985 6.08882991 3.5 5.125 C2.8503125 4.59132812 2.200625 4.05765625 1.53125 3.5078125 C1.0259375 3.01023438 0.520625 2.51265625 0 2 C0 1.34 0 0.68 0 0 Z " fill="#4793C6" transform="translate(65,178)"/>
<path d="M0 0 C2.97 1.98 2.97 1.98 6 4 C5.67 4.99 5.34 5.98 5 7 C3.68 6.67 2.36 6.34 1 6 C0.67 4.02 0.34 2.04 0 0 Z " fill="#20AAD0" transform="translate(422,70)"/>
<path d="M0 0 C-0.34879632 3.25543229 -1.02133261 4.01873107 -3.5625 6.25 C-4.366875 6.8275 -5.17125 7.405 -6 8 C-6 4 -6 4 -4.125 1.75 C-2 0 -2 0 0 0 Z " fill="#23B9C7" transform="translate(318,423)"/>
<path d="M0 0 C0.66 0.33 1.32 0.66 2 1 C1.6875 3.875 1.6875 3.875 1 7 C0.01 7.66 -0.98 8.32 -2 9 C-2 5.20442119 -1.49821059 3.37097383 0 0 Z " fill="#4790C4" transform="translate(98,152)"/>
<path d="M0 0 C0.33 0.66 0.66 1.32 1 2 C-0.4375 4.625 -0.4375 4.625 -2 7 C-3.65 6.67 -5.3 6.34 -7 6 C-6.21625 5.38125 -5.4325 4.7625 -4.625 4.125 C-2.03162353 2.10141339 -2.03162353 2.10141339 0 0 Z " fill="#3282BC" transform="translate(97,152)"/>
<path d="M0 0 C0.66 0.33 1.32 0.66 2 1 C0.3125 4 0.3125 4 -2 7 C-4.75 7.375 -4.75 7.375 -7 7 C-4.66666667 4.66666667 -2.33333333 2.33333333 0 0 Z " fill="#3F71B3" transform="translate(214,35)"/>
<path d="M0 0 C2.125 0.375 2.125 0.375 4 1 C3.2884375 1.6496875 3.2884375 1.6496875 2.5625 2.3125 C0.76313043 4.02309613 0.76313043 4.02309613 0 7 C-0.66 7 -1.32 7 -2 7 C-2.125 4.625 -2.125 4.625 -2 2 C-1.34 1.34 -0.68 0.68 0 0 Z " fill="#08BAD1" transform="translate(91,401)"/>
<path d="M0 0 C1.32 0.33 2.64 0.66 4 1 C3.34 1.66 2.68 2.32 2 3 C2.66 3.66 3.32 4.32 4 5 C1.69 5.33 -0.62 5.66 -3 6 C-2.01 4.02 -1.02 2.04 0 0 Z " fill="#13B4C6" transform="translate(396,339)"/>
<path d="M0 0 C0.625 1.875 0.625 1.875 1 4 C0.34 4.66 -0.32 5.32 -1 6 C-3.625 5.625 -3.625 5.625 -6 5 C-5.195625 4.360625 -4.39125 3.72125 -3.5625 3.0625 C-1.7249496 1.59396498 -1.7249496 1.59396498 0 0 Z " fill="#08B3C6" transform="translate(463,287)"/>
<path d="M0 0 C0.625 1.875 0.625 1.875 1 4 C-1 6 -1 6 -3.625 6.125 C-4.40875 6.08375 -5.1925 6.0425 -6 6 C-4 4 -2 2 0 0 Z " fill="#08AFBE" transform="translate(347,403)"/>
<path d="M0 0 C0 2 0 2 -1.375 3.5 C-1.91125 3.995 -2.4475 4.49 -3 5 C-3.66 5.66 -4.32 6.32 -5 7 C-5.6875 5.1875 -5.6875 5.1875 -6 3 C-4.04862098 0.26806937 -3.44686768 0 0 0 Z " fill="#09AFC0" transform="translate(345,401)"/>
<path d="M0 0 C-0.33 1.98 -0.66 3.96 -1 6 C-2.65 4.35 -4.3 2.7 -6 1 C-3 0 -3 0 0 0 Z " fill="#23C3D9" transform="translate(158,349)"/>
<path d="M0 0 C-1.28519565 2.86697492 -2.57129254 4.97607712 -5 7 C-5.66 7 -6.32 7 -7 7 C-3.86206897 0 -3.86206897 0 0 0 Z " fill="#2EBEDB" transform="translate(318,173)"/>
<path d="M0 0 C0.33 1.32 0.66 2.64 1 4 C-0.65 4.66 -2.3 5.32 -4 6 C-4.66 5.34 -5.32 4.68 -6 4 C-5.195625 3.525625 -4.39125 3.05125 -3.5625 2.5625 C-1.15246512 1.23099846 -1.15246512 1.23099846 0 0 Z " fill="#08B9D1" transform="translate(86,414)"/>
<path d="M0 0 C2.0625 0.4375 2.0625 0.4375 4 1 C1.03 3.475 1.03 3.475 -2 6 C-1.125 1.125 -1.125 1.125 0 0 Z " fill="#06BCD7" transform="translate(197,295)"/>
<path d="M0 0 C0.99 0.33 1.98 0.66 3 1 C1.02 3.31 -0.96 5.62 -3 8 C-3.66 7.67 -4.32 7.34 -5 7 C-3.35 4.69 -1.7 2.38 0 0 Z " fill="#358BC0" transform="translate(123,153)"/>
<path d="M0 0 C2.0625 0.4375 2.0625 0.4375 4 1 C1.03 3.475 1.03 3.475 -2 6 C-1.125 1.125 -1.125 1.125 0 0 Z " fill="#307EBA" transform="translate(91,151)"/>
<path d="M0 0 C2.31 0.66 4.62 1.32 7 2 C6.34 3.32 5.68 4.64 5 6 C3.35 4.02 1.7 2.04 0 0 Z " fill="#2395C6" transform="translate(291,96)"/>
<path d="M0 0 C0.99 0 1.98 0 3 0 C1.70700306 2.88437779 0.34058637 4.87219421 -2 7 C-2.125 4.625 -2.125 4.625 -2 2 C-1.34 1.34 -0.68 0.68 0 0 Z " fill="#3D6DB2" transform="translate(208,34)"/>
<path d="M0 0 C0.66 0.33 1.32 0.66 2 1 C-1.465 3.97 -1.465 3.97 -5 7 C-5 6.01 -5 5.02 -5 4 C-2.5 1.8125 -2.5 1.8125 0 0 Z " fill="#2E89BF" transform="translate(225,98)"/>
<path d="M0 0 C0.625 1.875 0.625 1.875 1 4 C0.34 4.66 -0.32 5.32 -1 6 C-1.99 6 -2.98 6 -4 6 C-2.84826645 3.53199953 -1.95216435 1.95216435 0 0 Z " fill="#3970B3" transform="translate(202,47)"/>
<path d="M0 0 C2.0625 0.4375 2.0625 0.4375 4 1 C2.71034824 2.37562854 1.37310707 3.70766393 0 5 C-0.66 5 -1.32 5 -2 5 C-1.125 1.125 -1.125 1.125 0 0 Z " fill="#3C70B3" transform="translate(197,45)"/>
</svg>
